<svg xmlns="http://www.w3.org/2000/svg" width="96" height="96" viewBox="0 0 96 96"><rect width="100%" height="100%" fill="#DDDDDD"/><path fill="#999999" d="M20.425 45.4q0 1.09.56 1.66t1.6.57q.54 0 .96-.17t.71-.47q.29-.29.44-.7.14-.4.14-.87 0-.53-.16-.95t-.46-.71q-.29-.28-.7-.44-.41-.15-.9-.15-.5 0-.91.17-.4.16-.69.46t-.44.71-.15.89m-1.09 9.11 4.04-5.05.29-.37.26-.36q-.45.29-.99.44t-1.14.15q-.67 0-1.32-.24-.65-.23-1.15-.7-.51-.48-.82-1.17-.31-.7-.31-1.64 0-.87.33-1.64.32-.76.91-1.34.58-.57 1.4-.91.82-.33 1.81-.33 1 0 1.79.32.8.31 1.36.88.57.57.87 1.36t.3 1.73q0 .61-.1 1.15-.11.54-.3 1.04t-.46.97q-.27.48-.6.95L22.525 54q-.15.21-.46.36-.3.15-.69.15zm17.11-13.01-3.86 4.72-.45.56q.38-.19.82-.29.43-.11.94-.11.74 0 1.43.25.7.24 1.23.73t.86 1.22q.32.73.32 1.7 0 .91-.33 1.71-.33.79-.94 1.39-.6.59-1.45.93t-1.88.34q-1.04 0-1.87-.33t-1.41-.93q-.59-.6-.9-1.44t-.31-1.87q0-.92.38-1.88.37-.97 1.15-2.02l3.11-4.16q.16-.22.47-.37t.71-.15zm-3.35 11.34q.53 0 .97-.18.45-.18.77-.51.32-.32.5-.76t.18-.95q0-.56-.17-1-.17-.45-.49-.76-.31-.31-.75-.47-.45-.16-.98-.16t-.96.18-.74.5q-.3.32-.47.75-.18.44-.18.94 0 .54.15.99.15.44.44.76.3.31.73.49t1 .18m19.08-1.31-1.18 1.16-3.05-3.05-3.08 3.07-1.18-1.16 3.08-3.09-2.94-2.93 1.17-1.17 2.94 2.93 2.92-2.91 1.18 1.17-2.92 2.92zm8.31-6.13q0 1.09.57 1.66.56.57 1.59.57.54 0 .97-.17.42-.17.71-.47.29-.29.43-.7.15-.4.15-.87 0-.53-.16-.95t-.46-.71q-.29-.28-.7-.44-.41-.15-.9-.15-.5 0-.91.17-.4.16-.69.46t-.44.71q-.16.41-.16.89m-1.08 9.11 4.04-5.05q.15-.19.28-.37.14-.18.27-.36-.45.29-.99.44t-1.14.15q-.67 0-1.32-.24-.65-.23-1.15-.7-.51-.48-.82-1.17-.31-.7-.31-1.64 0-.87.33-1.64.32-.76.9-1.34.59-.57 1.41-.91.82-.33 1.81-.33 1 0 1.79.32.8.31 1.36.88t.87 1.36q.3.79.3 1.73 0 .61-.11 1.15-.1.54-.29 1.04t-.46.97q-.27.48-.6.95L62.595 54q-.15.21-.46.36-.3.15-.69.15zm17.11-13.01-3.86 4.72-.45.56q.38-.19.82-.29.43-.11.94-.11.74 0 1.43.25.7.24 1.23.73t.86 1.22q.32.73.32 1.7 0 .91-.33 1.71-.34.79-.94 1.39-.6.59-1.45.93t-1.88.34q-1.04 0-1.87-.33t-1.41-.93q-.59-.6-.9-1.44t-.31-1.87q0-.92.37-1.88.38-.97 1.16-2.02l3.11-4.16q.16-.22.47-.37t.71-.15zm-3.35 11.34q.53 0 .97-.18.45-.18.77-.51.32-.32.5-.76t.18-.95q0-.56-.17-1-.17-.45-.49-.76-.31-.31-.76-.47-.44-.16-.97-.16t-.96.18-.74.5q-.3.32-.48.75-.17.44-.17.94 0 .54.15.99.15.44.44.76.3.31.73.49t1 .18"/></svg>